<svg width="301" height="144" viewBox="0 0 301 144" fill="none" xmlns="http://www.w3.org/2000/svg">
<path fill-rule="evenodd" clip-rule="evenodd" d="M265.93 73.1547C265.93 56.7017 257.981 43.7192 242.789 43.7192C227.533 43.7192 218.302 56.7017 218.302 73.0262C218.302 92.3714 229.199 102.14 244.84 102.14C252.468 102.14 258.238 100.405 262.597 97.9628V85.1089C258.238 87.2941 253.238 88.6437 246.891 88.6437C240.674 88.6437 235.161 86.4586 234.456 78.8747H265.802C265.802 78.0392 265.93 74.6972 265.93 73.1547ZM234.263 67.0491C234.263 59.7867 238.686 56.766 242.725 56.766C246.635 56.766 250.802 59.7867 250.802 67.0491H234.263Z" fill="white"/>
<path fill-rule="evenodd" clip-rule="evenodd" d="M193.558 43.7192C187.276 43.7192 183.238 46.6756 180.994 48.7323L180.161 44.7476H166.058V119.686L182.084 116.28L182.148 98.0914C184.456 99.7624 187.853 102.14 193.494 102.14C204.968 102.14 215.417 92.8855 215.417 72.512C215.353 53.8738 204.776 43.7192 193.558 43.7192ZM189.712 88.001C185.93 88.001 183.686 86.6514 182.148 84.9804L182.084 61.1363C183.75 59.2725 186.058 57.9871 189.712 57.9871C195.545 57.9871 199.584 64.5426 199.584 72.9619C199.584 81.5741 195.609 88.001 189.712 88.001Z" fill="white"/>
<path fill-rule="evenodd" clip-rule="evenodd" d="M144.007 39.9275L160.097 36.4569V23.4102L144.007 26.8164V39.9275Z" fill="white"/>
<path d="M160.097 44.812H144.007V101.048H160.097V44.812Z" fill="white"/>
<path fill-rule="evenodd" clip-rule="evenodd" d="M126.763 49.5677L125.738 44.8118H111.892V101.048H127.917V62.9358C131.699 57.9871 138.11 58.8868 140.097 59.5938V44.8118C138.045 44.0406 130.545 42.6266 126.763 49.5677Z" fill="white"/>
<path fill-rule="evenodd" clip-rule="evenodd" d="M94.712 30.8652L79.0709 34.2073L79.0068 85.6873C79.0068 95.1992 86.1222 102.205 95.6094 102.205C100.866 102.205 104.712 101.241 106.827 100.084V87.0369C104.776 87.8724 94.6479 90.8288 94.6479 81.3169V58.5012H106.827V44.8118H94.6479L94.712 30.8652Z" fill="white"/>
<path fill-rule="evenodd" clip-rule="evenodd" d="M51.3786 61.1363C51.3786 58.6298 53.4299 57.6658 56.8273 57.6658C61.6991 57.6658 67.853 59.144 72.7247 61.779V46.6756C67.4042 44.5547 62.1478 43.7192 56.8273 43.7192C43.8145 43.7192 35.1606 50.5318 35.1606 61.9076C35.1606 79.646 59.5196 76.8181 59.5196 84.4662C59.5196 87.4226 56.9555 88.3867 53.3658 88.3867C48.0453 88.3867 41.2504 86.2015 35.8658 83.2451V98.5413C41.8273 101.112 47.853 102.205 53.3658 102.205C66.6991 102.205 75.8658 95.5849 75.8658 84.0806C75.8017 64.9282 51.3786 68.3345 51.3786 61.1363Z" fill="white"/>
</svg>
